<svg width="64" height="64" viewBox="0 0 64 64" fill="none" xmlns="http://www.w3.org/2000/svg">
<path d="M0 31.995C0 14.3246 14.3246 0 31.995 0C49.6653 0 63.9899 14.3246 63.9899 31.995C63.9899 49.6653 49.6653 63.9899 31.995 63.9899C14.3246 63.9899 0 49.6653 0 31.995Z" fill="#6E851A" fill-opacity="0.1"/>
<path d="M28.885 21.513C28.9585 20.7404 29.3173 20.0229 29.8915 19.5007C30.4656 18.9786 31.2139 18.6892 31.99 18.6892C32.7661 18.6892 33.5143 18.9786 34.0885 19.5007C34.6626 20.0229 35.0215 20.7404 35.0949 21.513C35.1391 22.0121 35.3028 22.4933 35.5723 22.9157C35.8418 23.3381 36.209 23.6894 36.643 23.9398C37.077 24.1902 37.565 24.3323 38.0655 24.3542C38.5661 24.3761 39.0646 24.2771 39.5188 24.0655C40.224 23.7453 41.0232 23.699 41.7607 23.9355C42.4982 24.1721 43.1213 24.6746 43.5088 25.3452C43.8962 26.0159 44.0203 26.8067 43.8568 27.5637C43.6934 28.3208 43.254 28.99 42.6244 29.441C42.2144 29.7287 41.8797 30.1109 41.6486 30.5553C41.4175 30.9998 41.2969 31.4933 41.2969 31.9942C41.2969 32.495 41.4175 32.9886 41.6486 33.433C41.8797 33.8774 42.2144 34.2596 42.6244 34.5473C43.254 34.9983 43.6934 35.6675 43.8568 36.4246C44.0203 37.1817 43.8962 37.9725 43.5088 38.6431C43.1213 39.3138 42.4982 39.8163 41.7607 40.0528C41.0232 40.2893 40.224 40.243 39.5188 39.9228C39.0646 39.7112 38.5661 39.6122 38.0655 39.6341C37.565 39.656 37.077 39.7981 36.643 40.0485C36.209 40.2989 35.8418 40.6502 35.5723 41.0726C35.3028 41.4951 35.1391 41.9762 35.0949 42.4753C35.0215 43.2479 34.6626 43.9654 34.0885 44.4876C33.5143 45.0098 32.7661 45.2991 31.99 45.2991C31.2139 45.2991 30.4656 45.0098 29.8915 44.4876C29.3173 43.9654 28.9585 43.2479 28.885 42.4753C28.841 41.976 28.6772 41.4947 28.4077 41.0721C28.1381 40.6496 27.7707 40.2982 27.3365 40.0477C26.9023 39.7973 26.4142 39.6552 25.9135 39.6335C25.4127 39.6117 24.9141 39.711 24.4598 39.9228C23.7546 40.243 22.9554 40.2893 22.2179 40.0528C21.4804 39.8163 20.8573 39.3138 20.4698 38.6431C20.0824 37.9725 19.9583 37.1817 20.1218 36.4246C20.2853 35.6675 20.7246 34.9983 21.3542 34.5473C21.7642 34.2596 22.0989 33.8774 22.33 33.433C22.5611 32.9886 22.6817 32.495 22.6817 31.9942C22.6817 31.4933 22.5611 30.9998 22.33 30.5553C22.0989 30.1109 21.7642 29.7287 21.3542 29.441C20.7255 28.9898 20.2869 28.3209 20.1238 27.5643C19.9608 26.8077 20.0848 26.0176 20.4718 25.3473C20.8589 24.6771 21.4813 24.1748 22.2181 23.9379C22.9548 23.701 23.7534 23.7464 24.4585 24.0655C24.9127 24.2771 25.4112 24.3761 25.9118 24.3542C26.4123 24.3323 26.9003 24.1902 27.3343 23.9398C27.7683 23.6894 28.1355 23.3381 28.405 22.9157C28.6745 22.4933 28.8382 22.0121 28.8824 21.513" stroke="#6E851A" stroke-width="2.66577" stroke-linecap="round" stroke-linejoin="round"/>
<path d="M31.9891 35.9934C34.1975 35.9934 35.9878 34.2031 35.9878 31.9947C35.9878 29.7864 34.1975 27.9961 31.9891 27.9961C29.7807 27.9961 27.9905 29.7864 27.9905 31.9947C27.9905 34.2031 29.7807 35.9934 31.9891 35.9934Z" stroke="#6E851A" stroke-width="2.66577" stroke-linecap="round" stroke-linejoin="round"/>
</svg>
