<svg width="64" height="64" viewBox="0 0 64 64" fill="none" xmlns="http://www.w3.org/2000/svg">
<path d="M0 31.995C0 14.3246 14.3246 0 31.995 0C49.6653 0 63.9899 14.3246 63.9899 31.995C63.9899 49.6653 49.6653 63.9899 31.995 63.9899C14.3246 63.9899 0 49.6653 0 31.995Z" fill="#6E851A" fill-opacity="0.1"/>
<path d="M35.9879 34.6608C36.2545 33.3279 36.9209 32.3948 37.9872 31.3285C39.3201 30.1289 39.9866 28.3962 39.9866 26.6634C39.9866 24.5424 39.144 22.5083 37.6442 21.0085C36.1444 19.5087 34.1103 18.6661 31.9893 18.6661C29.8682 18.6661 27.8341 19.5087 26.3343 21.0085C24.8345 22.5083 23.9919 24.5424 23.9919 26.6634C23.9919 27.9963 24.2585 29.5958 25.9913 31.3285C26.9243 32.2616 27.724 33.3279 27.9906 34.6608" stroke="#6E851A" stroke-width="2.66577" stroke-linecap="round" stroke-linejoin="round"/>
<path d="M27.9905 39.9923H35.9878" stroke="#6E851A" stroke-width="2.66577" stroke-linecap="round" stroke-linejoin="round"/>
<path d="M29.3235 45.3239H34.655" stroke="#6E851A" stroke-width="2.66577" stroke-linecap="round" stroke-linejoin="round"/>
</svg>
