<svg width="40" height="40" viewBox="0 0 40 40" fill="none" xmlns="http://www.w3.org/2000/svg">
<path d="M0 19.999C0 8.95386 8.95386 0 19.999 0C31.0442 0 39.998 8.95386 39.998 19.999C39.998 31.0442 31.0442 39.998 19.999 39.998C8.95386 39.998 0 31.0442 0 19.999Z" fill="white" fill-opacity="0.1"/>
<g clip-path="url(#clip0_3_816)">
<path d="M24.9915 11.6685H22.4923C21.3876 11.6685 20.3282 12.1073 19.547 12.8884C18.7659 13.6696 18.327 14.729 18.327 15.8337V18.3329H15.8279V21.6651H18.327V28.3295H21.6593V21.6651H24.1584L24.9915 18.3329H21.6593V15.8337C21.6593 15.6128 21.747 15.4009 21.9032 15.2447C22.0595 15.0884 22.2714 15.0007 22.4923 15.0007H24.9915V11.6685Z" stroke="white" stroke-width="1.66611" stroke-linecap="round" stroke-linejoin="round"/>
</g>
<defs>
<clipPath id="clip0_3_816">
<rect width="19.9933" height="19.9933" fill="white" transform="translate(9.99658 10.0024)"/>
</clipPath>
</defs>
</svg>
