<svg width="64" height="64" viewBox="0 0 64 64" fill="none" xmlns="http://www.w3.org/2000/svg">
<path d="M0 31.995C0 14.3246 14.3246 0 31.995 0C49.6653 0 63.9899 14.3246 63.9899 31.995C63.9899 49.6653 49.6653 63.9899 31.995 63.9899C14.3246 63.9899 0 49.6653 0 31.995Z" fill="#6E851A" fill-opacity="0.1"/>
<path d="M35.9878 31.9947L23.4947 44.4879C23.2321 44.7505 22.9204 44.9589 22.5773 45.101C22.2343 45.2432 21.8665 45.3164 21.4952 45.3165C20.7451 45.3166 20.0258 45.0188 19.4954 44.4885C18.9649 43.9583 18.6669 43.239 18.6667 42.489C18.6666 41.739 18.9644 41.0196 19.4947 40.4892L31.9892 27.9961" stroke="#6E851A" stroke-width="2.66577" stroke-linecap="round" stroke-linejoin="round"/>
<path d="M39.9866 35.9934L45.3181 30.6619" stroke="#6E851A" stroke-width="2.66577" stroke-linecap="round" stroke-linejoin="round"/>
<path d="M44.6515 31.3283L42.1004 28.7772C41.6004 28.2773 41.3195 27.5994 41.3193 26.8925V26.4339C41.3192 25.727 41.0382 25.0491 40.5383 24.5492L38.3297 22.3407C36.8303 20.8416 34.7971 19.9992 32.6769 19.9988H27.9905L29.6473 21.6556C31.1467 23.1552 31.989 25.189 31.9891 27.3097V29.329L34.6549 31.9947H36.217C36.924 31.9949 37.6019 32.2758 38.1017 32.7758L40.6529 35.327" stroke="#6E851A" stroke-width="2.66577" stroke-linecap="round" stroke-linejoin="round"/>
</svg>
