<svg width="40" height="40" viewBox="0 0 40 40" fill="none" xmlns="http://www.w3.org/2000/svg">
<path d="M0 19.999C0 8.95386 8.95386 0 19.999 0C31.0442 0 39.998 8.95386 39.998 19.999C39.998 31.0442 31.0442 39.998 19.999 39.998C8.95386 39.998 0 31.0442 0 19.999Z" fill="white" fill-opacity="0.1"/>
<g clip-path="url(#clip0_3_806)">
<path d="M24.1584 11.6685H15.8279C13.5274 11.6685 11.6626 13.5333 11.6626 15.8337V24.1642C11.6626 26.4647 13.5274 28.3295 15.8279 28.3295H24.1584C26.4588 28.3295 28.3237 26.4647 28.3237 24.1642V15.8337C28.3237 13.5333 26.4588 11.6685 24.1584 11.6685Z" stroke="white" stroke-width="1.66611" stroke-linecap="round" stroke-linejoin="round"/>
<path d="M23.3254 19.4743C23.4282 20.1676 23.3098 20.8757 22.987 21.4978C22.6642 22.1199 22.1534 22.6244 21.5274 22.9395C20.9013 23.2546 20.1918 23.3643 19.4998 23.253C18.8079 23.1416 18.1686 22.8149 17.673 22.3193C17.1774 21.8237 16.8507 21.1844 16.7393 20.4925C16.628 19.8005 16.7377 19.091 17.0528 18.4649C17.3679 17.8389 17.8724 17.3281 18.4945 17.0053C19.1166 16.6825 19.8247 16.5641 20.518 16.6669C21.2252 16.7718 21.8799 17.1013 22.3855 17.6068C22.891 18.1124 23.2205 18.7671 23.3254 19.4743Z" stroke="white" stroke-width="1.66611" stroke-linecap="round" stroke-linejoin="round"/>
<path d="M24.575 15.4175H24.5833" stroke="white" stroke-width="1.66611" stroke-linecap="round" stroke-linejoin="round"/>
</g>
<defs>
<clipPath id="clip0_3_806">
<rect width="19.9933" height="19.9933" fill="white" transform="translate(9.99658 10.0024)"/>
</clipPath>
</defs>
</svg>
