<svg width="24" height="24" viewBox="0 0 24 24" fill="none" xmlns="http://www.w3.org/2000/svg">
<path d="M19.9978 9.99888C19.9978 14.9913 14.4594 20.1908 12.5996 21.7966C12.4264 21.9269 12.2155 21.9973 11.9987 21.9973C11.7819 21.9973 11.571 21.9269 11.3978 21.7966C9.53797 20.1908 3.99957 14.9913 3.99957 9.99888C3.99957 7.87738 4.84234 5.84277 6.34246 4.34264C7.84259 2.84252 9.8772 1.99976 11.9987 1.99976C14.1202 1.99976 16.1548 2.84252 17.6549 4.34264C19.1551 5.84277 19.9978 7.87738 19.9978 9.99888Z" stroke="#6E851A" stroke-width="1.99978" stroke-linecap="round" stroke-linejoin="round"/>
<path d="M11.999 12.9993C13.6559 12.9993 14.999 11.6561 14.999 9.99927C14.999 8.34241 13.6559 6.99927 11.999 6.99927C10.3422 6.99927 8.99902 8.34241 8.99902 9.99927C8.99902 11.6561 10.3422 12.9993 11.999 12.9993Z" stroke="#6E851A" stroke-width="1.99978" stroke-linecap="round" stroke-linejoin="round"/>
</svg>
