<svg width="40" height="40" viewBox="0 0 40 40" fill="none" xmlns="http://www.w3.org/2000/svg">
<path d="M0 19.999C0 8.95386 8.95386 0 19.999 0C31.0442 0 39.998 8.95386 39.998 19.999C39.998 31.0442 31.0442 39.998 19.999 39.998C8.95386 39.998 0 31.0442 0 19.999Z" fill="white" fill-opacity="0.1"/>
<g clip-path="url(#clip0_3_811)">
<path d="M23.3255 16.667C24.6511 16.667 25.9224 17.1936 26.8598 18.131C27.7972 19.0683 28.3238 20.3397 28.3238 21.6653V27.4967H24.9916V21.6653C24.9916 21.2234 24.816 20.7997 24.5036 20.4872C24.1911 20.1747 23.7673 19.9992 23.3255 19.9992C22.8836 19.9992 22.4598 20.1747 22.1474 20.4872C21.8349 20.7997 21.6594 21.2234 21.6594 21.6653V27.4967H18.3271V21.6653C18.3271 20.3397 18.8538 19.0683 19.7911 18.131C20.7285 17.1936 21.9998 16.667 23.3255 16.667Z" stroke="white" stroke-width="1.66611" stroke-linecap="round" stroke-linejoin="round"/>
<path d="M14.9948 17.5H11.6626V27.4966H14.9948V17.5Z" stroke="white" stroke-width="1.66611" stroke-linecap="round" stroke-linejoin="round"/>
<path d="M13.3287 15.0007C14.2489 15.0007 14.9948 14.2547 14.9948 13.3346C14.9948 12.4144 14.2489 11.6685 13.3287 11.6685C12.4085 11.6685 11.6626 12.4144 11.6626 13.3346C11.6626 14.2547 12.4085 15.0007 13.3287 15.0007Z" stroke="white" stroke-width="1.66611" stroke-linecap="round" stroke-linejoin="round"/>
</g>
<defs>
<clipPath id="clip0_3_811">
<rect width="19.9933" height="19.9933" fill="white" transform="translate(9.99658 10.0024)"/>
</clipPath>
</defs>
</svg>
