<svg width="187" height="198" viewBox="0 0 187 198" fill="none" xmlns="http://www.w3.org/2000/svg">
<path d="M179 5.99997C184.931 11.9312 186.316 18.5103 186.438 26.625C186.284 46.642 175.954 63.6485 162.562 77.8125C147.578 91.9255 130.657 99.1581 110.25 99.375C108.776 99.3961 108.776 99.3961 107.272 99.4177C101.156 99.3768 96.5881 98.5027 91 96C90.6068 97.2207 90.2137 98.4415 89.8086 99.6992C87.766 105.818 85.4229 111.811 83.0625 117.812C82.5816 119.039 82.1007 120.267 81.6052 121.531C78.2751 129.98 74.7153 138.31 71.0625 146.625C65.6822 158.899 61.1625 171.395 56.8323 184.071C56.5899 184.777 56.3475 185.483 56.0977 186.211C55.4397 188.133 54.7887 190.058 54.1382 191.983C53 195 53 195 51 198C49.68 197.67 48.36 197.34 47 197C46.8249 191.599 47.4538 186.755 48.5391 181.473C48.7004 180.66 48.8617 179.847 49.0278 179.009C49.3744 177.265 49.7239 175.523 50.076 173.78C50.6331 171.022 51.1817 168.263 51.7278 165.502C52.4675 161.763 53.2092 158.024 53.9526 154.286C68.7214 101.272 68.7214 101.272 63 50C59.6878 46.0415 57.5152 44.2566 52.3203 43.7265C36.9346 43.2375 24.3721 50.2344 13.3628 60.5312C10.9106 62.9479 8.54393 65.4157 6.20703 67.9453C4 70 4 70 0.999996 70C0.528812 66.5069 0.786685 65.2821 2.94921 62.4218C16.8307 48.877 32.4584 37.4896 52.5117 37.6562C58.8361 38.2794 62.6329 41.3021 66.8125 45.875C72.0207 53.3153 72.5202 59.259 72.4375 68.1875C72.4277 69.386 72.418 70.5845 72.408 71.8193C71.949 95.6492 66.5963 119.056 61.9983 142.358C61.8014 143.361 61.6045 144.364 61.4016 145.398C61.0277 147.298 60.6507 149.197 60.2699 151.096C60.1025 151.947 59.9352 152.799 59.7627 153.676C59.6149 154.417 59.4671 155.159 59.3148 155.923C58.9001 158.309 58.9001 158.309 59 162C59.3461 161.055 59.6922 160.109 60.0488 159.135C63.9291 148.618 68.1485 138.268 72.5 127.937C74.7082 122.683 76.9088 117.425 79.0962 112.162C80.0011 109.997 80.9201 107.839 81.8398 105.68C82.4042 104.33 82.968 102.98 83.5312 101.629C84.032 100.445 84.5328 99.261 85.0488 98.0412C85.992 95.0254 86.2193 93.849 85 91C83.8442 89.236 82.5645 87.6275 81.2539 85.9765C75.6685 77.1721 76.9424 63.4897 79.0625 53.6875C83.079 40.2249 91.4806 28.1413 103 20C105.812 20.25 105.812 20.25 108 21C106.449 24.94 103.941 26.98 100.75 29.6875C91.0844 38.2904 84.7981 48.8853 83.854 62.0332C83.7342 64.377 83.6697 66.7161 83.625 69.0625C83.599 69.8183 83.5729 70.5741 83.5461 71.3528C83.5276 77.2139 85.0857 80.9259 88 86C89.7532 83.3701 90.7613 81.0681 91.8 78.1147C98.9734 57.723 108.747 38.3746 123 22C123.589 21.3155 124.178 20.631 124.785 19.9258C133.354 10.6653 147.109 1.03023 159.969 0.0351264C167.617 -0.0972413 172.939 1.13757 179 5.99997ZM121.004 31.4336C110.073 46.4032 101.784 63.9844 95.375 81.3125C95.1028 82.0239 94.8305 82.7354 94.55 83.4685C93.5233 86.3726 92.8313 88.3788 93.6523 91.4023C96.7055 95.0219 101.82 94.893 106.23 95.2929C127.639 96.142 144.347 87.1598 160 73.2187C170.192 63.5725 180.164 47.4812 181.301 33.2304C181.32 31.8829 181.324 30.5351 181.312 29.1875C181.307 28.4826 181.301 27.7777 181.295 27.0515C181.154 20.9514 180.785 15.1514 176.605 10.4218C171.601 6.01311 167.383 4.47123 160.84 4.62497C144.587 6.77109 130.997 19.2507 121.004 31.4336Z" fill="#ffff"/>
</svg>
