<svg width="64" height="64" viewBox="0 0 64 64" fill="none" xmlns="http://www.w3.org/2000/svg">
<path d="M0 31.995C0 14.3246 14.3246 0 31.995 0C49.6653 0 63.9899 14.3246 63.9899 31.995C63.9899 49.6653 49.6653 63.9899 31.995 63.9899C14.3246 63.9899 0 49.6653 0 31.995Z" fill="#6E851A" fill-opacity="0.1"/>
<path d="M34.655 28.7105V25.3303C34.655 23.9163 35.2167 22.5602 36.2166 21.5604C37.2165 20.5605 38.5726 19.9988 39.9866 19.9988H41.9859C42.1626 19.9988 42.3322 20.069 42.4571 20.194C42.5821 20.319 42.6523 20.4885 42.6523 20.6652V22.6645C42.6523 24.0786 42.0906 25.4347 41.0908 26.4345C40.0909 27.4344 38.7348 27.9961 37.3208 27.9961C35.9068 27.9961 34.5507 28.5578 33.5508 29.5577C32.551 30.5575 31.9893 31.9136 31.9893 33.3276C31.9893 35.9934 33.3221 37.3263 33.3221 39.992C33.3221 41.434 32.8544 42.8371 31.9893 43.9907" stroke="#6E851A" stroke-width="2.66577" stroke-linecap="round" stroke-linejoin="round"/>
<path d="M21.3262 27.9962C22.3163 27.2536 23.4937 26.8014 24.7263 26.6903C25.959 26.5791 27.1982 26.8134 28.3052 27.3669C29.4122 27.9204 30.3432 28.7712 30.9939 29.8241C31.6446 30.8769 31.9892 32.0901 31.9892 33.3278C30.9991 34.0704 29.8218 34.5226 28.5891 34.6337C27.3564 34.7449 26.1172 34.5106 25.0102 33.9571C23.9032 33.4036 22.9722 32.5527 22.3215 31.4999C21.6708 30.4471 21.3262 29.2339 21.3262 27.9962Z" stroke="#6E851A" stroke-width="2.66577" stroke-linecap="round" stroke-linejoin="round"/>
<path d="M22.6589 43.9907H41.3193" stroke="#6E851A" stroke-width="2.66577" stroke-linecap="round" stroke-linejoin="round"/>
</svg>
