<svg width="40" height="40" viewBox="0 0 40 40" fill="none" xmlns="http://www.w3.org/2000/svg">
<path d="M26.6654 4.99951C25.7814 4.99951 24.9336 5.35068 24.3085 5.97577C23.6834 6.60086 23.3323 7.44867 23.3323 8.33268V18.3322C23.3323 19.2162 23.6834 20.064 24.3085 20.6891C24.9336 21.3142 25.7814 21.6654 26.6654 21.6654C27.1075 21.6654 27.5314 21.8409 27.8439 22.1535C28.1564 22.466 28.332 22.8899 28.332 23.3319V24.9985C28.332 25.8825 27.9809 26.7303 27.3558 27.3554C26.7307 27.9805 25.8829 28.3317 24.9989 28.3317C24.5569 28.3317 24.133 28.5073 23.8204 28.8198C23.5079 29.1324 23.3323 29.5563 23.3323 29.9983V33.3314C23.3323 33.7735 23.5079 34.1974 23.8204 34.5099C24.133 34.8224 24.5569 34.998 24.9989 34.998C27.6509 34.998 30.1943 33.9445 32.0696 32.0692C33.9449 30.194 34.9984 27.6506 34.9984 24.9985V8.33268C34.9984 7.44867 34.6472 6.60086 34.0221 5.97577C33.397 5.35068 32.5492 4.99951 31.6652 4.99951H26.6654Z" stroke="#6E851A" stroke-width="3.33317" stroke-linecap="round" stroke-linejoin="round"/>
<path d="M8.33293 4.99951C7.44891 4.99951 6.60111 5.35068 5.97602 5.97577C5.35093 6.60086 4.99976 7.44867 4.99976 8.33268V18.3322C4.99976 19.2162 5.35093 20.064 5.97602 20.6891C6.60111 21.3142 7.44891 21.6654 8.33293 21.6654C8.77493 21.6654 9.19883 21.8409 9.51138 22.1535C9.82392 22.466 9.99951 22.8899 9.99951 23.3319V24.9985C9.99951 25.8825 9.64834 26.7303 9.02325 27.3554C8.39816 27.9805 7.55035 28.3317 6.66634 28.3317C6.22433 28.3317 5.80043 28.5073 5.48789 28.8198C5.17534 29.1324 4.99976 29.5563 4.99976 29.9983V33.3314C4.99976 33.7735 5.17534 34.1974 5.48789 34.5099C5.80043 34.8224 6.22433 34.998 6.66634 34.998C9.31837 34.998 11.8618 33.9445 13.7371 32.0692C15.6123 30.194 16.6658 27.6506 16.6658 24.9985V8.33268C16.6658 7.44867 16.3147 6.60086 15.6896 5.97577C15.0645 5.35068 14.2167 4.99951 13.3327 4.99951H8.33293Z" stroke="#6E851A" stroke-width="3.33317" stroke-linecap="round" stroke-linejoin="round"/>
</svg>
