<svg width="24" height="24" viewBox="0 0 24 24" fill="none" xmlns="http://www.w3.org/2000/svg">
<path d="M13.8307 16.5664C14.0372 16.6612 14.2699 16.6829 14.4903 16.6278C14.7108 16.5728 14.9059 16.4442 15.0436 16.2634L15.3985 15.7985C15.5848 15.5501 15.8263 15.3485 16.104 15.2097C16.3817 15.0709 16.6879 14.9986 16.9984 14.9986H19.998C20.5284 14.9986 21.0371 15.2093 21.4121 15.5843C21.7871 15.9593 21.9978 16.468 21.9978 16.9984V19.998C21.9978 20.5284 21.7871 21.0371 21.4121 21.4121C21.0371 21.7871 20.5284 21.9978 19.998 21.9978C15.2247 21.9978 10.6468 20.1016 7.2715 16.7263C3.89622 13.351 2 8.77315 2 3.99978C2 3.46941 2.21069 2.96075 2.58572 2.58572C2.96075 2.21069 3.46941 2 3.99978 2H6.99945C7.52983 2 8.03848 2.21069 8.41351 2.58572C8.78854 2.96075 8.99923 3.46941 8.99923 3.99978V6.99945C8.99923 7.30991 8.92695 7.6161 8.78811 7.89378C8.64927 8.17146 8.44768 8.413 8.19932 8.59928L7.73137 8.95024C7.54781 9.0904 7.41842 9.28978 7.3652 9.51453C7.31198 9.73927 7.3382 9.9755 7.4394 10.1831C8.80593 12.9587 11.0534 15.2033 13.8307 16.5664Z" stroke="#6E851A" stroke-width="1.99978" stroke-linecap="round" stroke-linejoin="round"/>
</svg>
