<svg width="16" height="16" viewBox="0 0 16 16" fill="none" xmlns="http://www.w3.org/2000/svg">
<g clip-path="url(#clip0_3_757)">
<path d="M1.99391 10.891C2.09191 11.1382 2.11372 11.409 2.05656 11.6687L1.3468 13.8613C1.32393 13.9725 1.32984 14.0877 1.36398 14.196C1.39811 14.3042 1.45933 14.402 1.54184 14.48C1.62435 14.5579 1.72541 14.6135 1.83543 14.6415C1.94546 14.6694 2.0608 14.6688 2.17052 14.6397L4.44509 13.9746C4.69015 13.926 4.94394 13.9472 5.17751 14.0359C6.60062 14.7005 8.21273 14.8411 9.72941 14.4329C11.2461 14.0247 12.5699 13.094 13.4672 11.8049C14.3645 10.5158 14.7777 8.95124 14.6339 7.38719C14.49 5.82315 13.7984 4.36016 12.681 3.25635C11.5636 2.15254 10.0923 1.47884 8.52663 1.35412C6.96095 1.2294 5.40152 1.66168 4.12349 2.57467C2.84546 3.48767 1.93095 4.82272 1.54133 6.34427C1.1517 7.86582 1.31199 9.47609 1.99391 10.891Z" stroke="#4A5B11" stroke-width="1.33288" stroke-linecap="round" stroke-linejoin="round"/>
</g>
<defs>
<clipPath id="clip0_3_757">
<rect width="15.9946" height="15.9946" fill="white"/>
</clipPath>
</defs>
</svg>
